Dip1990


     Blood Diamond [2006] 720P BRRip [Dual-Audio] [English+Hindi]_Dip1990

General
Complete name                    : Blood Diamond [2006] 720P BRRip [Dual-Audio]
Genre						 : Adventure | Drama
IMDB Rating     				 : 8.0/10   92,790 votes
Format                           : Matroska
File size                        : 2.00 GiB
Duration                         : 2h 23mn
Overall bit rate                 : 1 997 Kbps
Encoded date                     : UTC 2010-11-14 19:35:16
Writing application              : mkvmerge v4.4.0 ('Die Wiederkehr') built on Oct 31 2010 21:52:48
Writing library                  : libebml v1.0.0 + libmatroska v1.0.0

Video
ID                               : 1
Format                           : AVC
Format/Info                      : Advanced Video Codec
Format profile                   : High@L4.1
Format settings, CABAC           : Yes
Format settings, ReFrames        : 3 frames
Muxing mode                      : Header stripping
Codec ID                         : V_MPEG4/ISO/AVC
Duration                         : 2h 23mn
Bit rate                         : 1 725 Kbps
Width                            : 1 280 pixels
Height                           : 528 pixels
Display aspect ratio             : 2.40:1
Frame rate                       : 23.976 fps
Color space                      : YUV
Chroma subsampling               : 4:2:0
Bit depth                        : 8 bits
Scan type                        : Progressive
Bits/(Pixel*Frame)               : 0.106
Stream size                      : 1.69 GiB (84%)
Title                            : Blood Diamond
Writing library                  : x264 core 67 r1159 3da3f95
Encoding settings                : cabac=1 / ref=3 / deblock=1:0:0 / analyse=0x3:0x113 / me=umh / subme=7 / psy_rd=1.0:0.0 / mixed_ref=1 / me_range=16 / chroma_me=1 / trellis=2 / 8x8dct=1 / cqm=0 / deadzone=21,11 / chroma_qp_offset=-2 / threads=3 / nr=0 / decimate=1 / mbaff=0 / bframes=3 / b_pyramid=0 / b_adapt=2 / b_bias=0 / direct=1 / wpredb=1 / keyint=250 / keyint_min=25 / scenecut=40 / rc=2pass / bitrate=1725 / ratetol=1.0 / qcomp=0.50 / qpmin=10 / qpmax=51 / qpstep=4 / cplxblur=20.0 / qblur=0.5 / ip_ratio=1.10 / pb_ratio=1.10 / aq=1:1.00
Language                         : English

Audio #1
ID                               : 2
Format                           : MPEG Audio
Format version                   : Version 1
Format profile                   : Layer 3
Mode                             : Joint stereo
Mode extension                   : MS Stereo
Muxing mode                      : Header stripping
Codec ID                         : A_MPEG/L3
Codec ID/Hint                    : MP3
Duration                         : 2h 23mn
Bit rate mode                    : Variable
Bit rate                         : 98.4 Kbps
Minimum bit rate                 : 32.0 Kbps
Channel(s)                       : 2 channels
Sampling rate                    : 48.0 KHz
Stream size                      : 101 MiB (5%)
Title                            : Blood Diamond - English
Writing library                  : LAME3.98r
Encoding settings                : -m j -V 6 -q 3 -lowpass 15.6 --vbr-old -b 32
Language                         : English

Audio #2
ID                               : 3
Format                           : MPEG Audio
Format version                   : Version 1
Format profile                   : Layer 3
Mode                             : Joint stereo
Mode extension                   : MS Stereo
Muxing mode                      : Header stripping
Codec ID                         : A_MPEG/L3
Codec ID/Hint                    : MP3
Duration                         : 2h 23mn
Bit rate mode                    : Variable
Bit rate                         : 172 Kbps
Minimum bit rate                 : 32.0 Kbps
Channel(s)                       : 2 channels
Sampling rate                    : 48.0 KHz
Stream size                      : 176 MiB (9%)
Title                            : Blood Diamond - Hindi
Writing library                  : LAME3.98r
Encoding settings                : -m j -V 0 -q 3 -lowpass 19.5 --vbr-old -b 32
Language                         : Hindi

Screens: 
http://img214.imageshack.us/img214/7002/blooddiamond2006720pbrr.jpg 
http://img718.imageshack.us/img718/7002/blooddiamond2006720pbrr.jpg 
http://img844.imageshack.us/img844/7002/blooddiamond2006720pbrr.jpg 
http://img814.imageshack.us/img814/7002/blooddiamond2006720pbrr.jpg 
http://img59.imageshack.us/img59/7002/blooddiamond2006720pbrr.jpg 
http://img443.imageshack.us/img443/7002/blooddiamond2006720pbrr.jpg 
http://img148.imageshack.us/img148/7002/blooddiamond2006720pbrr.jpg 
http://img522.imageshack.us/img522/7002/blooddiamond2006720pbrr.jpg

Sample: